#!OML:ASF E:\Steps\Project 1\Capture day 1\Session 2\Subject.ASF
:FULLY-SPECIFIED
:DEGREES
953
root 9.31193 22.6088 -14.412 -154.289 -2.06716 177.897
lowerback -31.8304 -1.59536 -7.39576
upperback -2.76733 -0.487334 -0.292713
thorax 13.4266 -1.05256 3.36867
lowerneck -0.184249 -1.48601 -3.92875
upperneck -2.94905 -1.96482 7.23024
head -0.781852 -1.06413 3.00765
rclavicle 1.16786e-015 2.06736e-014
rhumerus -36.3898 -19.937 -76.5019
rradius 26.1979
rwrist 0.875187
rhand -9.94 -51.483
rfingers 7.12502
rthumb 16.0414 -80.8389
lclavicle 1.16786e-015 2.06736e-014
lhumerus -29.0863 1.36062 83.8657
lradius 22.0629
lwrist -4.66659
lhand -20.0817 -14.1266
lfingers 7.12502
lthumb 6.26095 15.7609
rfemur -20.5106 6.17221 18.4847
rtibia 4.87204
rfoot -17.422 -4.41386
rtoes -28.3201
lfemur -21.6102 -8.13784 -21.7363
ltibia 8.07793
lfoot -8.58618 -2.06802
ltoes -36.3272
954
root 9.31162 22.6094 -14.4098 -154.248 -2.04041 177.88
lowerback -31.8775 -1.61496 -7.42094
upperback -2.73232 -0.494166 -0.292391
thorax 13.4876 -1.05808 3.37902
lowerneck -0.474175 -1.6589 -4.05232
upperneck -2.97481 -2.19364 7.3814
head -0.722778 -1.17698 3.07884
rclavicle -3.3048e-015 -2.34566e-014
rhumerus -36.4153 -19.7508 -76.5616
rradius 26.2205
rwrist 0.522976
rhand -9.68967 -51.8498
rfingers 7.12502
rthumb 16.2825 -81.1861
lclavicle -3.3048e-015 -2.34566e-014
lhumerus -29.0144 1.50918 83.8167
lradius 21.7715
lwrist -4.73955
lhand -20.1132 -13.8012
lfingers 7.12502
lthumb 6.23057 16.0872
rfemur -20.5875 6.15634 18.4498
rtibia 4.90946
rfoot -17.4274 -4.40041
rtoes -28.2076
lfemur -21.6817 -8.04432 -21.7774
ltibia 8.11002
lfoot -8.6096 -2.11607
ltoes -36.8752
955
root 9.31185 22.6102 -14.4062 -154.186 -1.99873 177.869
lowerback -31.878 -1.63034 -7.43095
upperback -2.73789 -0.511491 -0.305448
thorax 13.4827 -1.06685 3.36291
lowerneck -0.421734 -1.58192 -4.0551
upperneck -3.07713 -2.09047 7.4924
head -0.770093 -1.13113 3.11944
rclavicle 2.98177e-015 1.98785e-015
rhumerus -36.54 -19.7225 -76.5785
rradius 26.3831
rwrist 0.300922
rhand -9.41516 -52.5687
rfingers 7.12502
rthumb 16.5468 -81.8832
lclavicle 2.98177e-015 1.98785e-015
lhumerus -29.0552 1.73117 83.6906
lradius 21.5669
lwrist -4.80778
lhand -19.681 -13.1879
lfingers 7.12502
lthumb 6.64775 16.6878
rfemur -20.7129 6.11804 18.4204
rtibia 4.98251
rfoot -17.4353 -4.32319
rtoes -27.9936
lfemur -21.7912 -8.01061 -21.7906
ltibia 8.16288
lfoot -8.64352 -2.10028
ltoes -37.0044
956
root 9.31252 22.6101 -14.4053 -154.138 -1.9603 177.866
lowerback -31.8777 -1.67607 -7.45843
upperback -2.73858 -0.564359 -0.29024
thorax 13.4874 -1.09283 3.37268
lowerneck -0.414848 -1.50901 -4.08544
upperneck -3.25987 -1.98996 7.60599
head -0.834879 -1.08762 3.1666
rclavicle 3.926e-015 -1.66979e-014
rhumerus -36.5711 -20.0885 -76.3923
rradius 26.2375
rwrist 0.595918
rhand -9.36058 -52.5852
rfingers 7.12502
rthumb 16.5993 -81.8953
lclavicle 3.926e-015 -1.66979e-014
lhumerus -29.08 2.15568 83.4982
lradius 21.2208
lwrist -5.12634
lhand -19.3346 -12.913
lfingers 7.12502
lthumb 6.9822 16.9518
rfemur -20.8105 6.14023 18.3979
rtibia 5.06538
rfoot -17.4561 -4.28032
rtoes -27.7407
lfemur -21.8408 -8.01613 -21.7887
ltibia 8.13034
lfoot -8.629 -2.04877
ltoes -37.2125
957
root 9.31128 22.6092 -14.4076 -154.155 -1.96223 177.903
lowerback -31.9392 -1.70001 -7.43076
upperback -2.6933 -0.596343 -0.247372
thorax 13.571 -1.10713 3.39089
lowerneck -0.381168 -1.51582 -4.13663
upperneck -3.45967 -1.9943 7.64166
head -0.903693 -1.09468 3.19173
rclavicle -2.26118e-015 9.93923e-015
rhumerus -36.5075 -20.542 -76.0817
rradius 25.852
rwrist 1.00989
rhand -9.25646 -52.6009
rfingers 7.12502
rthumb 16.6996 -81.9026
lclavicle -2.26118e-015 9.93923e-015
lhumerus -29.1359 2.49317 83.3896
lradius 20.8557
lwrist -5.53506
lhand -19.4907 -13.2284
lfingers 7.12502
lthumb 6.83144 16.6414
rfemur -20.7746 6.13588 18.4475
rtibia 5.0526
rfoot -17.4601 -4.26879
rtoes -27.7438
lfemur -21.7758 -8.03813 -21.7553
ltibia 8.05321
lfoot -8.60556 -2.04908
ltoes -37.0887
958
root 9.31147 22.6092 -14.409 -154.196 -1.95757 177.931
lowerback -31.9775 -1.73877 -7.41417
upperback -2.68395 -0.651094 -0.233242
thorax 13.6045 -1.13232 3.37434
lowerneck -0.0289603 -1.34314 -4.07328
upperneck -3.58841 -1.764 7.68384
head -1.02219 -0.989449 3.20052
rclavicle -3.23025e-015 -1.35174e-014
rhumerus -36.6094 -20.6454 -75.9462
rradius 25.6635
rwrist 1.19512
rhand -9.13148 -52.859
rfingers 7.12502
rthumb 16.8199 -82.1505
lclavicle -3.23025e-015 -1.35174e-014
lhumerus -29.3124 2.8574 83.1762
lradius 20.5255
lwrist -5.89986
lhand -19.8016 -13.8433
lfingers 7.12502
lthumb 6.53138 16.036
rfemur -20.6669 6.1632 18.4878
rtibia 4.92208
rfoot -17.4067 -4.28413
rtoes -27.9056
lfemur -21.7162 -8.02406 -21.7266
ltibia 8.05934
lfoot -8.6059 -2.1216
ltoes -36.1752
959
root 9.31368 22.6093 -14.4086 -154.201 -1.94899 177.946
lowerback -31.9515 -1.75394 -7.42617
upperback -2.68603 -0.670013 -0.217858
thorax 13.5934 -1.14094 3.39047
lowerneck 0.0539436 -1.30828 -4.09375
upperneck -3.7253 -1.71532 7.76319
head -1.08344 -0.971275 3.23471
rclavicle -2.45996e-015 1.66979e-014
rhumerus -36.8368 -20.7036 -75.8163
rradius 25.7825
rwrist 1.28016
rhand -9.23636 -52.9236
rfingers 7.12502
rthumb 16.7189 -82.2237
lclavicle -2.45996e-015 1.66979e-014
lhumerus -29.4201 3.21562 83.0032
lradius 20.1656
lwrist -6.21414
lhand -19.8802 -13.9931
lfingers 7.12502
lthumb 6.45551 15.8885
rfemur -20.6223 6.23933 18.5032
rtibia 4.83374
rfoot -17.3536 -4.32953
rtoes -28.0192
lfemur -21.7235 -7.98791 -21.699
ltibia 8.09749
lfoot -8.61357 -2.14284
ltoes -35.6711
